<?xml version="1.0" encoding="UTF-8"?>
<svg id="Layer_1" xmlns="http://www.w3.org/2000/svg" version="1.1" viewBox="0 0 800 800">
  <!-- Generator: Adobe Illustrator 29.8.2, SVG Export Plug-In . SVG Version: 2.1.1 Build 3)  -->
  <defs>
    <style>
      .st0 {
        fill: #efaa54;
      }

      .st0, .st1 {
        fill-rule: evenodd;
      }

      .st1 {
        fill: #fff;
      }
    </style>
  </defs>
  <path id="vector__x28_Stroke_x29_" class="st0" d="M75,200c0-13.81,11.19-25,25-25h600c13.81,0,25,11.19,25,25s-11.19,25-25,25H100c-13.81,0-25-11.19-25-25Z"/>
  <path id="vector__x28_Stroke_x29__x5F_2" class="st1" d="M275,400c0-13.81,11.19-25,25-25h400c13.81,0,25,11.19,25,25s-11.19,25-25,25h-400c-13.81,0-25-11.19-25-25Z"/>
  <path id="vector__x28_Stroke_x29__x5F_3" class="st0" d="M75,600c0-13.81,11.19-25,25-25h600c13.81,0,25,11.19,25,25s-11.19,25-25,25H100c-13.81,0-25-11.19-25-25Z"/>
</svg>