<?xml version="1.0" encoding="UTF-8"?>
<svg id="Layer_1" data-name="Layer 1" xmlns="http://www.w3.org/2000/svg" viewBox="0 0 512 512">
  <path d="M371.52,100.49h68.84c11.56,0,23.42,14.22,24.75,25.29,2,16.63,1.62,52.12.28,69.2-3.22,40.91-58.64,24.2-85.51,27.66-1.57.35-8.35,5.92-8.35,6.57v38.22h24.99c10.35,0,22.36,12.99,23.27,23.25,1.96,21.93-1.36,46.98-.25,69.23-.55,8.42-14.36,20.86-22.15,20.86h-25.87v62.82c0,9.56-16.01,23.21-25.88,22.39-58.14-3.01-120.38,4.05-178.04.05-9.68-.67-19.03-5.15-23.9-13.83-.7-1.24-3.68-7.88-3.68-8.62v-128.72h-60.94c-14.58,0-33.84-18.31-32.92-33.8,1.66-28.35-2.1-58.98,0-87.05,1.02-13.7,8.87-24.85,21.37-30.43,1.93-.86,8.16-3.36,9.8-3.36h62.7v-91.82c0-.73,2.98-7.38,3.68-8.62,4.97-8.85,14.06-13.14,23.9-13.83,57.65-4.01,119.91,3.08,178.04.05,9.87-.82,25.88,12.83,25.88,22.39v32.07ZM361,100.49v-29.43c0-4.51-8.31-13.88-13.57-13.64-62.01.49-124.25-.88-186.13.69-4.04.89-10.76,9.31-10.76,12.95v89.18h9.65v-87.42c0-1.07,3.05-4.61,4.78-4l183.76.48c.61.3,2.62,3.14,2.62,3.52v27.68h9.65ZM340.83,79.4h-170.12v80.83h40.78c11.19,0,29.14,16.16,29.86,28.07v98.5c-3.36,14.29-15.68,25.46-30.3,27.19l11.33,39.17c1.27,5.76-2.47,10.43-8.15,7.28l-43.51-34.15v97.53h170.12v-42.17c-3.09,1.13-6.04,3.8-8.68,5.8-11.29,8.54-22.03,17.86-33.46,26.24-2.71,1.32-6.59-.07-7.5-3.02-1.42-4.59,8.69-29.48,7.53-30.77-10.17-1.96-18.58-9.85-20.83-19.99,1.37-22.22-2.56-48.31-.22-70.08,1.06-9.81,13.41-22.4,23.24-22.4h39.9v-14.06c-3.3.5-5.06,4.81-8.4,5.28-3.81.53-7.08-2.48-6.35-6.36l8.58-30.5c-15.17-3.66-22.69-14.06-23.68-29.44-.9-13.96-1.85-59.96,1.52-71.49,3.57-12.19,15.82-20.46,28.34-20.37v-21.09ZM341.72,238.43l33.97-26.14c19.39-1.79,41.18,1.67,60.28-.22,10.79-1.07,17.85-7.05,18.85-18.02,1.5-16.5,1.46-48.48.05-65.03-.95-11.07-8.05-17.08-18.85-18.01-30.51-2.64-64.74,2.07-95.64,0-8.21.61-16.94,5.75-17.95,14.53-2.57,22.53,1.87,49.83.06,72.87,1.82,6.06,5.51,10.15,11.53,12.17,3.75,1.25,11.04.89,12.5,4.17,2.17,4.85-5.12,17.8-4.79,23.7ZM207.53,341.23l-8.6-30.55c-.92-8.18,8.45-6.17,13.91-7.63,8.21-2.19,17.16-10.76,18.3-19.44-2-29.2,2.94-62.59.06-91.29-1.24-12.37-12.18-20.54-24.07-21.57-40.57-3.5-86.1,2.69-127.19.03-13.91,2.77-22.13,10.51-23.26,25.01,1.87,27.21-2.4,57.53.05,84.36,1.32,14.51,11.79,22.87,25.87,24.16,24.81,2.28,52.53-1.99,77.64.4l47.29,36.51ZM361,267.42v-29.87c-1.69.55-9.65,6.6-9.65,7.47v22.4h9.65ZM305.76,394.82c10.78-8.03,20.71-17.34,32.18-24.42,17.79-1.82,38.52,1.79,55.94-.18,7.39-.84,14.46-5.89,15.34-13.62,2.35-20.62-1.42-46.19-.41-67.24-2.61-7.86-9.77-10.86-17.53-11.43-28-2.09-58.57,1.63-86.84.05-7.88,1.05-15.25,5-16.23,13.61-2.32,20.34,1.67,45.01.08,65.82,1.42,7.19,6.41,10.47,13.04,12.42,3.07.91,7.31-.49,9.04,3.25,2.3,4.94-5.36,20.82-4.61,21.75ZM351.35,380.77v50.52c0,.32-2.99,2.99-3.73,3.29-61.04,1.1-122.65,1.11-183.7,0-1.88-1.16-3.82-2.54-3.78-5l.03-110.73c-.8-4.14-6.23-4.26-9.63-3.97v126.08c0,4.51,8.31,13.88,13.57,13.64,62.01-.49,124.25.88,186.13-.69,4.04-.89,10.76-9.31,10.76-12.95v-60.19h-9.65Z"/>
  <path d="M215.18,98.04l79.63-.21c8.33.96,8.91,10.41,0,11.46-24.62-2.17-54.04,2.83-78.08,0-7.82-.92-8.88-8.51-1.55-11.25Z"/>
  <path d="M174.22,220.86h15.35c.35,0,4.13,1.79,4.78,2.24,6.13,4.18,6.81,12.41,2.55,18.29-.87,1.2-2.84,1.72-3.25,2.9-.68,1.99.21,5.13-.32,7.58-.6,2.76-3.53,3.9-4.03,5.63-.66,2.29.06,5.09-.76,8.02-.96,3.42-4.67,5.56-4.69,5.94-.06.83,1.03,2.56.95,4.28-.3,6.47-5.53,11.33-11.85,11.94-8.74.84-24.48.6-33.4,0-4.11-.28-12.82-2.94-15.72-2.65-1.74.17-3.09,2.26-6.14,2.64-3.93.48-20.73.45-23.59-1.01-3.81-1.95-5.4-6.87-5.8-10.88-1.06-10.57-1-32.43-.05-43.08.5-5.62,2.44-10.36,8.22-11.97,4.28-1.19,13.96-1.19,18.55-.72,4.09.41,8.07,3.57,10.45,3.47,1.97-.08,10.33-3.3,12.22-4.51,11.76-7.46,9.04-35.52,27.8-32,15.65,2.94,12.59,22.84,8.73,33.9ZM187.81,231.4c-3.56-.98-17.86,0-22.8,0-.19,0-2.4-2.2-2.61-2.65-1.55-3.36,3.02-14.35,3.69-19.11.46-3.28,2.21-12.2-2.84-12.2-4.53,0-6.62,11.65-8.17,15.23-6.02,13.89-13.9,17.69-28.1,21.49v39.74c.15.8.68,1.01,1.36,1.26.83.31,9.62,1.93,10.35,1.93h34.2c.31,0,1.51-1.33,1.31-2.18-.35-1.53-6.24-.89-7.01-5.33-1.56-8.99,10.81-5.22,11.4-7.88.58-2.63-8.19-1.61-6.87-8.56,1.19-6.3,10.49-3.41,11.26-4.17,3.07-3.05-8.33-3.47-6.64-9.69,1.84-6.77,9.29-3.05,11.94-4.77,1.51-.98.59-2.81-.47-3.1ZM116.34,231.4h-16.66v45.69h15.78l.88-45.69Z"/>
  <path d="M384.43,156.03c5.12-1.13,41.46-1.06,47.11-.14,7.18,1.18,7.09,10.46-1.71,11.37-9.33.97-34.73,1.18-43.76-.08-8.05-1.12-7.69-9.82-1.65-11.15Z"/>
  <path d="M383.55,132.3l48.9-.16c5.84,1.09,5.21,10.33-.81,10.57l-47.38-.07c-5.21-1.57-5.53-8-.71-10.33Z"/>
  <path d="M435.33,181.53c3.37,3.39.44,8.71-3.79,9.41-7.73,1.27-37.34,1.02-45.57.07-7.59-.88-8.11-9.8-.87-10.56,11.09-1.18,34.38-.99,45.65-.04,1.36.11,3.61.15,4.58,1.12Z"/>
  <path d="M361.64,157.82c2.18,2.33,1.24,5.95-1.07,7.7-5.35,4.03-26.51,2.48-19.67-7.41,2.33-3.38,18.06-3.14,20.74-.28Z"/>
  <path d="M343.21,132.3c2.11-.6,13.97-.49,16.09.2,4.97,1.62,4.13,9.24-.51,10.14-2.03.39-13.77.35-15.58-.17-4.44-1.28-4.43-8.9,0-10.17Z"/>
  <path d="M343.21,180.63c3.55-1.02,18.14-1.31,19.39,3.09,2.97,10.42-19.61,8.27-21.83,5.14-1.9-2.69-.74-7.31,2.44-8.23Z"/>
  <path d="M315.16,294.86c19.17,1.34,42.52-2.48,61.2-.22,7.55.91,11.26,7.55,11.85,14.49.76,8.86.84,26.39-.04,35.16-.72,7.13-5.27,12.96-12.66,13.68-18.55,1.8-39.95-1.45-58.82-.02-6.4-.77-10.95-6.8-11.72-12.86-1.04-8.25-.94-28.38-.09-36.79.64-6.34,4.2-11.34,10.27-13.43ZM377.66,321.02v-12.74c0-.25-1.36-2.4-1.75-2.63h-58.75c-.39.24-1.75,2.39-1.75,2.63v12.74h16.22c.41,0,3.11-4.99,4.9-6.52,5.78-4.94,14.24-4.94,20.02,0,1.79,1.53,4.49,6.52,4.9,6.52h16.22ZM344.04,322.05c-3.14,1.09-3.53,8.17,1.59,8.71,8.73.92,7.01-11.69-1.59-8.71ZM377.66,331.56h-16.22c-.73,0-2.2,3.92-3.05,4.85-6.34,6.99-17.37,6.99-23.71,0-.85-.93-2.32-4.85-3.05-4.85h-16.22v12.74c0,.25,1.36,2.4,1.75,2.63h58.75c.39-.24,1.75-2.39,1.75-2.63v-12.74Z"/>
</svg>