<svg xmlns="http://www.w3.org/2000/svg" xmlns:xlink="http://www.w3.org/1999/xlink" width="150" zoomAndPan="magnify" viewBox="0 0 112.5 112.499997" height="150" preserveAspectRatio="xMidYMid meet" version="1.0"><path fill="#000000" d="M 103.902344 50.554688 C 104.144531 52.21875 104.328125 53.910156 104.398438 55.625 L 101.027344 55.625 C 100.195312 57.011719 99.308594 58.398438 98.386719 59.789062 L 104.394531 59.789062 C 103.925781 71.167969 99.671875 81.585938 92.808594 89.773438 C 89.457031 87.839844 85.652344 86.183594 81.527344 84.808594 C 82.164062 82.910156 82.730469 80.9375 83.230469 78.90625 C 82.027344 80.191406 80.824219 81.472656 79.5625 82.734375 C 78.035156 84.265625 76.476562 85.746094 74.914062 87.1875 C 75.34375 87.289062 75.796875 87.378906 76.214844 87.488281 C 71.664062 98.742188 64.636719 106.339844 56.617188 107.476562 L 56.617188 101.554688 C 55.226562 102.476562 53.839844 103.363281 52.453125 104.195312 L 52.453125 107.476562 C 51.167969 107.292969 49.921875 106.890625 48.695312 106.386719 C 46.152344 107.785156 43.636719 108.988281 41.144531 110.085938 C 45.433594 111.1875 49.902344 111.835938 54.539062 111.835938 C 69.941406 111.835938 83.800781 105.375 93.65625 95.050781 C 94.589844 94.078125 95.515625 93.089844 96.371094 92.050781 C 104.058594 82.703125 108.671875 70.746094 108.671875 57.707031 C 108.671875 53.058594 108.058594 48.546875 106.957031 44.238281 C 106.039062 46.324219 105.035156 48.429688 103.902344 50.554688 Z M 69.203125 105.464844 C 73.570312 101.417969 77.3125 95.625 80.132812 88.632812 C 83.746094 89.804688 87.089844 91.199219 90.039062 92.816406 C 84.308594 98.613281 77.179688 103.011719 69.203125 105.464844 Z M 69.203125 105.464844 " fill-opacity="1" fill-rule="nonzero"/><path fill="#000000" d="M 12.707031 92.050781 C 13.566406 93.089844 14.492188 94.074219 15.421875 95.050781 C 18.058594 97.808594 20.992188 100.269531 24.152344 102.425781 C 25.96875 102.125 27.867188 101.691406 29.878906 101.0625 C 25.910156 98.796875 22.242188 96.054688 19.042969 92.824219 C 21.992188 91.207031 25.335938 89.8125 28.949219 88.640625 C 30.5625 92.636719 32.503906 96.183594 34.660156 99.292969 C 35.894531 98.78125 37.136719 98.253906 38.394531 97.652344 C 36.304688 94.765625 34.429688 91.363281 32.863281 87.496094 C 38.839844 85.929688 45.457031 84.992188 52.460938 84.835938 L 52.460938 89.34375 C 53.851562 88.375 55.238281 87.351562 56.625 86.300781 L 56.625 84.835938 C 57.210938 84.847656 57.773438 84.902344 58.359375 84.925781 C 59.921875 83.683594 61.476562 82.394531 63.019531 81.058594 C 60.921875 80.867188 58.792969 80.726562 56.625 80.675781 L 56.625 59.789062 L 81.550781 59.789062 C 81.53125 60.515625 81.457031 61.210938 81.429688 61.925781 C 83.09375 59.832031 84.695312 57.734375 86.175781 55.625 L 85.714844 55.625 C 85.511719 46.53125 84.027344 38.023438 81.535156 30.605469 C 85.660156 29.234375 89.464844 27.574219 92.816406 25.644531 C 94.734375 27.929688 96.421875 30.40625 97.910156 33.011719 C 98.542969 30.980469 98.976562 29.0625 99.273438 27.242188 C 98.363281 25.910156 97.40625 24.613281 96.382812 23.367188 C 95.527344 22.324219 94.597656 21.34375 93.667969 20.363281 C 83.804688 10.039062 69.945312 3.582031 54.542969 3.582031 C 39.140625 3.582031 25.28125 10.042969 15.421875 20.363281 C 14.492188 21.339844 13.566406 22.324219 12.707031 23.367188 C 5.03125 32.710938 0.417969 44.671875 0.417969 57.707031 C 0.417969 70.746094 5.03125 82.703125 12.707031 92.050781 Z M 90.039062 22.597656 C 87.089844 24.210938 83.746094 25.605469 80.132812 26.78125 C 77.3125 19.785156 73.570312 13.992188 69.203125 9.945312 C 77.179688 12.402344 84.308594 16.800781 90.039062 22.597656 Z M 56.625 7.941406 C 64.644531 9.074219 71.671875 16.675781 76.222656 27.929688 C 70.246094 29.496094 63.628906 30.433594 56.625 30.589844 Z M 56.625 34.746094 C 64.121094 34.578125 71.214844 33.539062 77.636719 31.78125 C 79.953125 38.792969 81.359375 46.917969 81.550781 55.625 L 56.625 55.625 Z M 52.460938 80.667969 C 44.96875 80.832031 37.871094 81.875 31.453125 83.632812 C 29.132812 76.621094 27.730469 68.496094 27.539062 59.785156 L 52.460938 59.785156 Z M 52.460938 55.625 L 27.539062 55.625 C 27.734375 46.917969 29.136719 38.792969 31.453125 31.78125 C 37.871094 33.539062 44.96875 34.578125 52.460938 34.746094 Z M 52.460938 7.941406 L 52.460938 30.585938 C 45.457031 30.429688 38.839844 29.492188 32.863281 27.925781 C 37.414062 16.671875 44.441406 9.074219 52.460938 7.941406 Z M 39.878906 9.945312 C 35.515625 13.992188 31.773438 19.785156 28.949219 26.78125 C 25.335938 25.605469 21.996094 24.210938 19.046875 22.597656 C 24.777344 16.800781 31.902344 12.402344 39.878906 9.945312 Z M 16.277344 25.640625 C 19.628906 27.570312 23.433594 29.230469 27.554688 30.601562 C 25.066406 38.015625 23.578125 46.527344 23.378906 55.621094 L 4.683594 55.621094 C 5.160156 44.242188 9.40625 33.824219 16.277344 25.640625 Z M 23.378906 59.789062 C 23.578125 68.882812 25.066406 77.394531 27.554688 84.808594 C 23.433594 86.183594 19.628906 87.84375 16.277344 89.773438 C 9.410156 81.585938 5.160156 71.167969 4.6875 59.789062 Z M 23.378906 59.789062 " fill-opacity="1" fill-rule="nonzero"/><path fill="#000000" d="M 36.570312 107.527344 C 49.617188 102.421875 63.84375 92.566406 76.628906 79.789062 C 89.40625 67.003906 99.261719 52.777344 104.367188 39.730469 C 109.242188 27.273438 109.226562 17.152344 104.496094 10.828125 L 108.789062 9.691406 L 111.882812 8.871094 L 106.363281 6.554688 L 101.746094 4.617188 L 91.25 0.207031 L 95.660156 10.699219 L 97.785156 15.753906 L 99.332031 19.445312 L 99.917969 20.839844 L 101.722656 14.039062 C 104.945312 19.246094 104.550781 27.847656 100.488281 38.210938 C 95.589844 50.738281 86.070312 64.460938 73.683594 76.84375 C 61.296875 89.226562 47.574219 98.75 35.050781 103.648438 C 29.269531 105.910156 24.050781 107.023438 19.652344 107.019531 C 15.0625 107.011719 11.367188 105.792969 8.910156 103.34375 C 5.851562 100.28125 4.703125 95.300781 5.453125 89.054688 C 4.296875 87.246094 3.25 85.367188 2.292969 83.425781 C -0.136719 93.390625 1.058594 101.378906 5.964844 106.28125 C 9.253906 109.570312 13.90625 111.21875 19.617188 111.21875 C 19.625 111.21875 19.628906 111.21875 19.632812 111.21875 C 24.5625 111.21875 30.269531 109.992188 36.570312 107.527344 Z M 36.570312 107.527344 " fill-opacity="1" fill-rule="nonzero"/></svg>