<?xml version="1.0" encoding="UTF-8"?>
<svg id="Layer_1" data-name="Layer 1" xmlns="http://www.w3.org/2000/svg" viewBox="0 0 512 512">
  <path d="M333.33,84.53l33.21,18.33c30.51-14.58,41.95-32.73,65.49,2.81,7.83,11.82,46.45,76.92,48.4,86.21,5.29,25.24-17.94,32.75-36.66,41.53v40.85c4.5,13.15,46.04,11.56,36,47.64l-56.56,96.87c-6.5,5.81-15.81,6.4-24.14,5.15-12.34-1.85-26.57-18.48-36.37-14.68-1.96.76-27.62,16.07-28.49,17.5-9.48,15.58,13.67,52.35-32.19,56.66-17.45,1.64-89.35,2.38-103.37-1.88-29.6-9.01-13.38-42.9-20.6-54.77-.87-1.43-26.57-16.76-28.49-17.5-13.3-5.13-37.81,29.61-60.5,9.54-14.81-29.73-40.97-61.76-53.92-91.46-18-41.29,28.45-38.72,33.35-53.05v-40.85c-18.54-8.53-45.01-17.67-35.98-43.57l57.86-98.27c18.18-16.95,36.53,2.47,53.12,11.69l35.44-18.72c1.34-18.4-4.5-48.67,19.22-54.82,12.32-3.19,103.64-3.19,115.96,0,23.72,6.15,17.88,36.42,19.22,54.82ZM332.86,227.6c17.22,66.48-40.8,117.56-105.11,95.55l-42.96,43.06c123.18,83.97,270.22-78.05,175.09-193.84s-272.86-17.08-230.94,123.1c1.64,5.48,10.23,30.33,16.56,28.92,6.53-8.35,41.31-36.72,41.74-44.13.28-4.84-4.29-13.14-4.9-19.29-5.79-57.81,47.16-98.11,102.05-81.78,5.17,7.34-43.03,46.63-48.06,55.53-1.5,7.71,29.52,35.17,37.23,40.32,3.14,1.67,4.46.15,6.85-1.45,13.55-9.09,29.52-34.82,42.9-43.42,3.31-2.13,5.36-3.36,9.54-2.56Z"/>
</svg>